<?xml version="1.0" encoding="utf-8"?>
<!-- Generator: Adobe Illustrator 22.0.1, SVG Export Plug-In . SVG Version: 6.00 Build 0)  -->
<svg version="1.1" id="Capa_1" xmlns="http://www.w3.org/2000/svg" xmlns:xlink="http://www.w3.org/1999/xlink" x="0px" y="0px"
	 viewBox="0 0 114.4 55.4" style="enable-background:new 0 0 114.4 55.4;" xml:space="preserve">
<style type="text/css">
	.st0{clip-path:url(#SVGID_2_);}
	.st1{display:none;}
	.st2{display:inline;}
	.st3{display:inline;clip-path:url(#SVGID_4_);}
	.st4{clip-path:url(#SVGID_6_);fill:#5E5E5E;}
	.st5{clip-path:url(#SVGID_8_);fill:#5E5E5E;}
	.st6{clip-path:url(#SVGID_10_);}
	.st7{fill:#5E5E5E;}
</style>
<g>
	<g>
		<defs>
			<rect id="SVGID_1_" y="-26.1" width="115" height="96"/>
		</defs>
		<clipPath id="SVGID_2_">
			<use xlink:href="#SVGID_1_"  style="overflow:visible;"/>
		</clipPath>
		<g class="st0">
			<g class="st1">
				<defs>
					<rect id="SVGID_3_" x="-38" y="-26.1" width="1372.2" height="768"/>
				</defs>
				<clipPath id="SVGID_4_" class="st2">
					<use xlink:href="#SVGID_3_"  style="overflow:visible;"/>
				</clipPath>
				<g class="st3">
					
						<image style="overflow:visible;enable-background:new    ;" width="2795" height="2179" xlink:href="E83FC2FECC84BBF5.jpeg"  transform="matrix(0.4906 0 0 0.4906 -37.0199 -196.1021)">
					</image>
				</g>
			</g>
			<g>
				<defs>
					<rect id="SVGID_5_" y="-26.1" width="115" height="96"/>
				</defs>
				<clipPath id="SVGID_6_">
					<use xlink:href="#SVGID_5_"  style="overflow:visible;"/>
				</clipPath>
				<polyline class="st4" points="21.8,36.9 29.4,31.7 29.4,26.7 15.9,35.7 15.9,38.2 29.4,47.1 29.4,42 21.8,36.9 				"/>
			</g>
			<g>
				<defs>
					<rect id="SVGID_7_" y="-26.1" width="115" height="96"/>
				</defs>
				<clipPath id="SVGID_8_">
					<use xlink:href="#SVGID_7_"  style="overflow:visible;"/>
				</clipPath>
				<polyline class="st5" points="91,37 83.4,42.2 83.4,47.1 96.9,38.2 96.9,35.7 83.4,26.7 83.4,31.8 91,37 				"/>
			</g>
			<g>
				<defs>
					<rect id="SVGID_9_" y="-26.1" width="115" height="96"/>
				</defs>
				<clipPath id="SVGID_10_">
					<use xlink:href="#SVGID_9_"  style="overflow:visible;"/>
				</clipPath>
				<g class="st6">
					<path class="st7" d="M49.9,7.4v24.1h1.3c0.5,0,0.8-0.1,1.1-0.2s0.6-0.4,0.8-0.8l7.2-8.9c0.3-0.4,0.6-0.7,1-0.9
						c0.4-0.2,0.8-0.3,1.4-0.3h6.4l-9,10.8c-0.6,0.8-1.3,1.5-2.1,2c0.4,0.3,0.8,0.6,1.1,1s0.6,0.8,0.9,1.2l9.7,14.1h-6.3
						c-0.5,0-1-0.1-1.4-0.3s-0.7-0.5-1-1l-7.4-11c-0.3-0.4-0.5-0.7-0.8-0.9c-0.3-0.1-0.7-0.2-1.3-0.2h-1.6v13.3h-7v-42
						C42.9,7.4,49.9,7.4,49.9,7.4z"/>
				</g>
			</g>
		</g>
	</g>
</g>
</svg>
